# xmcd CD database file
#
# Track frame offsets:
#	150
#	21401
#	69620
#	92248
#	105531
#	127899
#	151359
#	168974
#	185626
#	211888
#
# Disc length: 3017 seconds
#
# Revision: 0
# Processed by: cddbd v1.5PL3 Copyright (c) Steve Scherf et al.
# Submitted via: CDex 1.51
#
DISCID=840bc70a
DTITLE=Wiermann and Vogel - A Mão Livre
DYEAR=2004
DGENRE=New Age
TTITLE0=Give me your hand
TTITLE1=Madrugada
TTITLE2=Cantilena
TTITLE3=Salas Vazias
TTITLE4=A Loja dos Relógios
TTITLE5=Tribo
TTITLE6=Mensageiro dos Ventos
TTITLE7=Canto de Outono
TTITLE8=Dança das Horas
TTITLE9=Fugato
EXTD=YEAR: 2004
EXTT0=
EXTT1=
EXTT2=
EXTT3=
EXTT4=
EXTT5=
EXTT6=
EXTT7=
EXTT8=
EXTT9=
PLAYORDER=
